<svg xmlns="http://www.w3.org/2000/svg" width="1000" height="600" viewBox="0 0 1000 600">
  <rect x="0" y="0" width="1000" height="600" fill="white"/>
  <polyline points="900.0,300.0 900.0,300.8 900.0,301.5 899.9,302.3 899.9,303.0 899.9,303.8 899.8,304.5 899.7,305.3 899.6,306.0 899.5,306.8 899.4,307.5 899.3,308.3 899.1,309.0 899.0,309.8 898.8,310.5 898.7,311.3 898.5,312.0 898.3,312.8 898.1,313.5 897.9,314.3 897.6,315.0 897.4,315.8 897.1,316.5 896.9,317.2 896.6,318.0 896.3,318.7 896.0,319.5 895.7,320.2 895.4,320.9 895.0,321.7 894.7,322.4 894.3,323.1 893.9,323.9 893.6,324.6 893.2,325.3 892.8,326.0 892.3,326.8 891.9,327.5 891.5,328.2 891.0,328.9 890.6,329.6 890.1,330.3 889.6,331.0 889.1,331.7 888.6,332.5 888.1,333.2 887.5,333.9 887.0,334.6 886.4,335.2 885.9,335.9 885.3,336.6 884.7,337.3 884.1,338.0 883.5,338.7 882.8,339.4 882.2,340.0 881.6,340.7 880.9,341.4 880.2,342.1 879.5,342.7 878.8,343.4 878.1,344.0 877.4,344.7 876.7,345.4 876.0,346.0 875.2,346.6 874.5,347.3 873.7,347.9 872.9,348.6 872.1,349.2 871.3,349.8 870.5,350.4 869.7,351.1 868.8,351.7 868.0,352.3 867.1,352.9 866.2,353.5 865.4,354.1 864.5,354.7 863.6,355.3 862.6,355.9 861.7,356.5 860.8,357.1 859.8,357.6 858.9,358.2 857.9,358.8 856.9,359.3 855.9,359.9 854.9,360.5 853.9,361.0 852.9,361.6 851.9,362.1 850.8,362.6 849.8,363.2 848.7,363.7 847.6,364.2 846.6,364.7 845.5,365.2 844.4,365.7 843.2,366.2 842.1,366.7 841.0,367.2 839.8,367.7 838.7,368.2 837.5,368.7 836.3,369.1 835.1,369.6 833.9,370.0 832.7,370.5 831.5,370.9 830.3,371.4 829.1,371.8 827.8,372.2 826.5,372.7 825.3,373.1 824.0,373.5 822.7,373.9 821.4,374.3 820.1,374.7 818.8,375.1 817.5,375.5 816.1,375.8 814.8,376.2 813.4,376.6 812.0,376.9 810.7,377.3 809.3,377.6 807.9,377.9 806.5,378.3 805.1,378.6 803.6,378.9 802.2,379.2 800.8,379.5 799.3,379.8 797.8,380.1 796.4,380.3 794.9,380.6 793.4,380.9 791.9,381.1 790.4,381.4 788.9,381.6 787.3,381.8 785.8,382.1 784.2,382.3 782.7,382.5 781.1,382.7 779.5,382.9 777.9,383.0 776.3,383.2 774.7,383.4 773.1,383.5 771.5,383.7 769.9,383.8 768.2,384.0 766.6,384.1 764.9,384.2 763.2,384.3 761.5,384.4 759.9,384.5 758.2,384.6 756.4,384.6 754.7,384.7 753.0,384.7 751.3,384.8 749.5,384.8 747.8,384.8 746.0,384.9 744.2,384.9 742.4,384.8 740.6,384.8 738.8,384.8 737.0,384.8 735.2,384.7 733.3,384.6 731.5,384.6 729.6,384.5 727.8,384.4 725.9,384.3 724.0,384.2 722.1,384.0 720.2,383.9 718.3,383.7 716.4,383.6 714.4,383.4 712.5,383.2 710.5,383.0 708.5,382.8 706.6,382.6 704.6,382.3 702.6,382.1 700.5,381.8 698.5,381.5 696.5,381.2 694.4,380.9 692.3,380.6 690.3,380.3 688.2,379.9 686.1,379.6 684.0,379.2 681.8,378.8 679.7,378.4 677.5,377.9 675.3,377.5 673.2,377.0 670.9,376.6 668.7,376.1 666.5,375.5 664.2,375.0 662.0,374.5 659.7,373.9 657.4,373.3 655.0,372.7 652.7,372.0 650.3,371.4 648.0,370.7 645.5,370.0 643.1,369.3 640.7,368.5 638.2,367.8 635.7,367.0 633.1,366.1 630.6,365.3 628.0,364.4 625.4,363.5 622.7,362.5 620.0,361.5 617.3,360.5 614.5,359.5 611.7,358.4 608.8,357.2 605.9,356.1 602.9,354.8 599.9,353.5 596.8,352.2 593.6,350.8 590.4,349.4 587.0,347.9 583.6,346.3 580.1,344.6 576.4,342.8 572.6,340.9 568.6,338.9 564.5,336.8 560.0,334.5 555.3,332.0 550.3,329.2 544.7,326.2 538.4,322.6 530.9,318.3 521.0,312.6 507.9,304.8 523.7,314.3 532.5,319.7 539.3,324.0 544.9,327.7 549.9,330.9 554.4,333.9 558.5,336.7 562.3,339.3 565.8,341.8 569.0,344.1 572.1,346.4 575.0,348.6 577.8,350.7 580.4,352.7 582.9,354.7 585.3,356.7 587.6,358.5 589.8,360.4 591.9,362.2 593.9,364.0 595.9,365.7 597.7,367.4 599.5,369.1 601.3,370.8 603.0,372.4 604.6,374.0 606.2,375.6 607.7,377.2 609.1,378.7 610.6,380.3 611.9,381.8 613.3,383.3 614.5,384.8 615.8,386.2 617.0,387.7 618.1,389.1 619.3,390.6 620.3,392.0 621.4,393.4 622.4,394.8 623.4,396.2 624.3,397.5 625.2,398.9 626.1,400.2 627.0,401.6 627.8,402.9 628.6,404.2 629.4,405.5 630.1,406.8 630.8,408.1 631.5,409.4 632.1,410.7 632.8,412.0 633.4,413.2 634.0,414.5 634.5,415.7 635.0,417.0 635.5,418.2 636.0,419.4 636.5,420.6 636.9,421.8 637.3,423.0 637.7,424.2 638.1,425.4 638.5,426.6 638.8,427.8 639.1,428.9 639.4,430.1 639.6,431.3 639.9,432.4 640.1,433.6 640.3,434.7 640.5,435.8 640.7,436.9 640.8,438.1 641.0,439.2 641.1,440.3 641.2,441.4 641.3,442.5 641.3,443.6 641.4,444.6 641.4,445.7 641.4,446.8 641.4,447.9 641.4,448.9 641.4,450.0 641.3,451.0 641.2,452.1 641.1,453.1 641.0,454.1 640.9,455.1 640.8,456.2 640.6,457.2 640.5,458.2 640.3,459.2 640.1,460.2 639.9,461.2 639.7,462.2 639.4,463.1 639.2,464.1 638.9,465.1 638.6,466.0 638.3,467.0 638.0,468.0 637.7,468.9 637.4,469.8 637.0,470.8 636.7,471.7 636.3,472.6 635.9,473.5 635.5,474.5 635.1,475.4 634.7,476.3 634.2,477.2 633.8,478.0 633.3,478.9 632.8,479.8 632.4,480.7 631.9,481.5 631.3,482.4 630.8,483.3 630.3,484.1 629.7,484.9 629.2,485.8 628.6,486.6 628.0,487.4 627.4,488.3 626.8,489.1 626.2,489.9 625.6,490.7 625.0,491.5 624.3,492.3 623.7,493.0 623.0,493.8 622.3,494.6 621.6,495.4 620.9,496.1 620.2,496.9 619.5,497.6 618.8,498.4 618.1,499.1 617.3,499.8 616.6,500.5 615.8,501.3 615.0,502.0 614.2,502.7 613.4,503.4 612.6,504.1 611.8,504.8 611.0,505.4 610.2,506.1 609.3,506.8 608.5,507.4 607.7,508.1 606.8,508.7 605.9,509.4 605.0,510.0 604.2,510.7 603.3,511.3 602.4,511.9 601.4,512.5 600.5,513.1 599.6,513.7 598.7,514.3 597.7,514.9 596.8,515.5 595.8,516.0 594.9,516.6 593.9,517.2 592.9,517.7 591.9,518.3 590.9,518.8 589.9,519.3 588.9,519.9 587.9,520.4 586.9,520.9 585.9,521.4 584.9,521.9 583.8,522.4 582.8,522.9 581.7,523.4 580.7,523.9 579.6,524.3 578.5,524.8 577.5,525.2 576.4,525.7 575.3,526.1 574.2,526.6 573.1,527.0 572.0,527.4 570.9,527.8 569.8,528.2 568.7,528.6 567.6,529.0 566.5,529.4 565.3,529.8 564.2,530.2 563.1,530.5 561.9,530.9 560.8,531.3 559.6,531.6 558.5,531.9 557.3,532.3 556.1,532.6 555.0,532.9 553.8,533.2 552.6,533.5 551.4,533.8 550.3,534.1 549.1,534.4 547.9,534.7 546.7,534.9 545.5,535.2 544.3,535.5 543.1,535.7 541.9,536.0 540.7,536.2 539.5,536.4 538.2,536.6 537.0,536.9 535.8,537.1 534.6,537.3 533.4,537.5 532.1,537.6 530.9,537.8 529.7,538.0 528.4,538.2 527.2,538.3 526.0,538.5 524.7,538.6 523.5,538.8 522.2,538.9 521.0,539.0 519.7,539.1 518.5,539.2 517.2,539.3 516.0,539.4 514.7,539.5 513.5,539.6 512.2,539.7 511.0,539.7 509.7,539.8 508.5,539.8 507.2,539.9 506.0,539.9 504.7,539.9 503.5,540.0 502.2,540.0 500.9,540.0 499.7,540.0 498.4,540.0 497.2,540.0 495.9,540.0 494.7,539.9 493.4,539.9 492.1,539.9 490.9,539.8 489.6,539.8 488.4,539.7 487.1,539.6 485.9,539.6 484.6,539.5 483.4,539.4 482.1,539.3 480.9,539.2 479.6,539.1 478.4,538.9 477.1,538.8 475.9,538.7 474.7,538.5 473.4,538.4 472.2,538.2 471.0,538.1 469.7,537.9 468.5,537.7 467.3,537.6 466.0,537.4 464.8,537.2 463.6,537.0 462.4,536.8 461.2,536.5 459.9,536.3 458.7,536.1 457.5,535.8 456.3,535.6 455.1,535.3 453.9,535.1 452.7,534.8 451.5,534.5 450.3,534.3 449.2,534.0 448.0,533.7 446.8,533.4 445.6,533.1 444.5,532.8 443.3,532.4 442.1,532.1 441.0,531.8 439.8,531.4 438.7,531.1 437.5,530.7 436.4,530.4 435.2,530.0 434.1,529.6 433.0,529.2 431.9,528.8 430.7,528.4 429.6,528.0 428.5,527.6 427.4,527.2 426.3,526.8 425.2,526.3 424.1,525.9 423.1,525.5 422.0,525.0 420.9,524.6 419.9,524.1 418.8,523.6 417.7,523.1 416.7,522.7 415.7,522.2 414.6,521.7 413.6,521.2 412.6,520.7 411.6,520.1 410.6,519.6 409.6,519.1 408.6,518.5 407.6,518.0 406.6,517.4 405.6,516.9 404.7,516.3 403.7,515.8 402.7,515.2 401.8,514.6 400.9,514.0 399.9,513.4 399.0,512.8 398.1,512.2 397.2,511.6 396.3,511.0 395.4,510.3 394.5,509.7 393.6,509.1 392.8,508.4 391.9,507.8 391.1,507.1 390.2,506.4 389.4,505.8 388.6,505.1 387.8,504.4 387.0,503.7 386.2,503.0 385.4,502.3 384.6,501.6 383.8,500.9 383.1,500.2 382.3,499.5 381.6,498.7 380.8,498.0 380.1,497.2 379.4,496.5 378.7,495.7 378.0,495.0 377.3,494.2 376.7,493.4 376.0,492.7 375.4,491.9 374.7,491.1 374.1,490.3 373.5,489.5 372.9,488.7 372.3,487.8 371.7,487.0 371.1,486.2 370.5,485.4 370.0,484.5 369.4,483.7 368.9,482.8 368.4,482.0 367.9,481.1 367.4,480.2 366.9,479.4 366.5,478.5 366.0,477.6 365.6,476.7 365.1,475.8 364.7,474.9 364.3,474.0 363.9,473.1 363.5,472.2 363.2,471.2 362.8,470.3 362.5,469.4 362.1,468.4 361.8,467.5 361.5,466.5 361.2,465.6 361.0,464.6 360.7,463.6 360.4,462.7 360.2,461.7 360.0,460.7 359.8,459.7 359.6,458.7 359.4,457.7 359.3,456.7 359.1,455.7 359.0,454.6 358.9,453.6 358.8,452.6 358.7,451.5 358.7,450.5 358.6,449.4 358.6,448.4 358.6,447.3 358.6,446.3 358.6,445.2 358.6,444.1 358.7,443.0 358.8,441.9 358.9,440.8 359.0,439.7 359.1,438.6 359.2,437.5 359.4,436.4 359.6,435.3 359.8,434.1 360.0,433.0 360.2,431.8 360.5,430.7 360.8,429.5 361.1,428.4 361.4,427.2 361.7,426.0 362.1,424.8 362.5,423.6 362.9,422.4 363.3,421.2 363.7,420.0 364.2,418.8 364.7,417.6 365.2,416.3 365.8,415.1 366.3,413.8 366.9,412.6 367.5,411.3 368.2,410.1 368.9,408.8 369.5,407.5 370.3,406.2 371.0,404.9 371.8,403.6 372.6,402.2 373.4,400.9 374.3,399.6 375.2,398.2 376.1,396.8 377.1,395.5 378.1,394.1 379.1,392.7 380.2,391.3 381.3,389.8 382.4,388.4 383.6,387.0 384.8,385.5 386.1,384.0 387.4,382.5 388.7,381.0 390.1,379.5 391.6,378.0 393.1,376.4 394.6,374.8 396.2,373.2 397.9,371.6 399.6,369.9 401.3,368.3 403.2,366.6 405.1,364.8 407.1,363.1 409.2,361.3 411.3,359.5 413.5,357.6 415.9,355.7 418.3,353.7 420.9,351.7 423.6,349.6 426.4,347.5 429.4,345.3 432.6,343.0 436.0,340.6 439.6,338.0 443.5,335.3 447.8,332.5 452.5,329.4 457.8,325.9 464.0,322.0 471.6,317.2 482.3,310.7 486.3,308.2 473.6,315.7 465.2,320.6 458.4,324.5 452.5,327.8 447.1,330.7 442.3,333.3 437.7,335.7 433.4,337.9 429.4,340.0 425.5,341.9 421.7,343.7 418.1,345.4 414.7,347.1 411.3,348.6 408.0,350.1 404.8,351.5 401.7,352.9 398.6,354.2 395.6,355.4 392.7,356.6 389.8,357.8 386.9,358.9 384.1,360.0 381.4,361.0 378.7,362.0 376.0,363.0 373.3,363.9 370.7,364.8 368.1,365.7 365.6,366.5 363.1,367.4 360.6,368.2 358.1,368.9 355.7,369.6 353.3,370.4 350.9,371.1 348.5,371.7 346.1,372.4 343.8,373.0 341.5,373.6 339.2,374.2 336.9,374.7 334.6,375.3 332.4,375.8 330.2,376.3 327.9,376.8 325.8,377.3 323.6,377.7 321.4,378.2 319.2,378.6 317.1,379.0 315.0,379.4 312.9,379.8 310.8,380.1 308.7,380.5 306.6,380.8 304.6,381.1 302.5,381.4 300.5,381.7 298.5,382.0 296.4,382.2 294.4,382.5 292.5,382.7 290.5,382.9 288.5,383.1 286.6,383.3 284.6,383.5 282.7,383.7 280.8,383.8 278.8,384.0 276.9,384.1 275.0,384.2 273.2,384.3 271.3,384.4 269.4,384.5 267.6,384.6 265.7,384.7 263.9,384.7 262.1,384.8 260.3,384.8 258.5,384.8 256.7,384.8 254.9,384.9 253.1,384.8 251.4,384.8 249.6,384.8 247.9,384.8 246.1,384.7 244.4,384.7 242.7,384.6 241.0,384.5 239.3,384.5 237.6,384.4 235.9,384.3 234.3,384.1 232.6,384.0 231.0,383.9 229.3,383.8 227.7,383.6 226.1,383.5 224.5,383.3 222.9,383.1 221.3,383.0 219.7,382.8 218.1,382.6 216.5,382.4 215.0,382.2 213.4,381.9 211.9,381.7 210.4,381.5 208.9,381.2 207.4,381.0 205.9,380.7 204.4,380.5 202.9,380.2 201.4,379.9 200.0,379.6 198.5,379.3 197.1,379.0 195.6,378.7 194.2,378.4 192.8,378.1 191.4,377.8 190.0,377.4 188.6,377.1 187.3,376.7 185.9,376.4 184.6,376.0 183.2,375.6 181.9,375.3 180.6,374.9 179.2,374.5 177.9,374.1 176.6,373.7 175.4,373.3 174.1,372.9 172.8,372.5 171.6,372.0 170.3,371.6 169.1,371.2 167.9,370.7 166.7,370.3 165.5,369.8 164.3,369.4 163.1,368.9 161.9,368.4 160.7,367.9 159.6,367.5 158.5,367.0 157.3,366.5 156.2,366.0 155.1,365.5 154.0,365.0 152.9,364.5 151.8,363.9 150.7,363.4 149.7,362.9 148.6,362.4 147.6,361.8 146.6,361.3 145.6,360.7 144.6,360.2 143.6,359.6 142.6,359.1 141.6,358.5 140.6,357.9 139.7,357.4 138.7,356.8 137.8,356.2 136.9,355.6 136.0,355.0 135.1,354.4 134.2,353.8 133.3,353.2 132.5,352.6 131.6,352.0 130.8,351.4 129.9,350.8 129.1,350.1 128.3,349.5 127.5,348.9 126.7,348.2 125.9,347.6 125.2,347.0 124.4,346.3 123.7,345.7 122.9,345.0 122.2,344.4 121.5,343.7 120.8,343.1 120.1,342.4 119.4,341.7 118.8,341.1 118.1,340.4 117.5,339.7 116.8,339.0 116.2,338.3 115.6,337.7 115.0,337.0 114.4,336.3 113.9,335.6 113.3,334.9 112.7,334.2 112.2,333.5 111.7,332.8 111.2,332.1 110.7,331.4 110.2,330.7 109.7,330.0 109.2,329.3 108.8,328.5 108.3,327.8 107.9,327.1 107.4,326.4 107.0,325.7 106.6,324.9 106.2,324.2 105.9,323.5 105.5,322.8 105.1,322.0 104.8,321.3 104.5,320.6 104.2,319.8 103.8,319.1 103.6,318.4 103.3,317.6 103.0,316.9 102.7,316.1 102.5,315.4 102.3,314.6 102.0,313.9 101.8,313.2 101.6,312.4 101.4,311.7 101.2,310.9 101.1,310.2 100.9,309.4 100.8,308.7 100.7,307.9 100.5,307.2 100.4,306.4 100.3,305.7 100.3,304.9 100.2,304.1 100.1,303.4 100.1,302.6 100.0,301.9 100.0,301.1 100.0,300.4 100.0,299.6 100.0,298.9 100.0,298.1 100.1,297.4 100.1,296.6 100.2,295.9 100.3,295.1 100.3,294.3 100.4,293.6 100.5,292.8 100.7,292.1 100.8,291.3 100.9,290.6 101.1,289.8 101.2,289.1 101.4,288.3 101.6,287.6 101.8,286.8 102.0,286.1 102.3,285.4 102.5,284.6 102.7,283.9 103.0,283.1 103.3,282.4 103.6,281.6 103.8,280.9 104.2,280.2 104.5,279.4 104.8,278.7 105.1,278.0 105.5,277.2 105.9,276.5 106.2,275.8 106.6,275.1 107.0,274.3 107.4,273.6 107.9,272.9 108.3,272.2 108.8,271.5 109.2,270.7 109.7,270.0 110.2,269.3 110.7,268.6 111.2,267.9 111.7,267.2 112.2,266.5 112.7,265.8 113.3,265.1 113.9,264.4 114.4,263.7 115.0,263.0 115.6,262.3 116.2,261.7 116.8,261.0 117.5,260.3 118.1,259.6 118.8,258.9 119.4,258.3 120.1,257.6 120.8,256.9 121.5,256.3 122.2,255.6 122.9,255.0 123.7,254.3 124.4,253.7 125.2,253.0 125.9,252.4 126.7,251.8 127.5,251.1 128.3,250.5 129.1,249.9 129.9,249.2 130.8,248.6 131.6,248.0 132.5,247.4 133.3,246.8 134.2,246.2 135.1,245.6 136.0,245.0 136.9,244.4 137.8,243.8 138.7,243.2 139.7,242.6 140.6,242.1 141.6,241.5 142.6,240.9 143.6,240.4 144.6,239.8 145.6,239.3 146.6,238.7 147.6,238.2 148.6,237.6 149.7,237.1 150.7,236.6 151.8,236.1 152.9,235.5 154.0,235.0 155.1,234.5 156.2,234.0 157.3,233.5 158.5,233.0 159.6,232.5 160.7,232.1 161.9,231.6 163.1,231.1 164.3,230.6 165.5,230.2 166.7,229.7 167.9,229.3 169.1,228.8 170.3,228.4 171.6,228.0 172.8,227.5 174.1,227.1 175.4,226.7 176.6,226.3 177.9,225.9 179.2,225.5 180.6,225.1 181.9,224.7 183.2,224.4 184.6,224.0 185.9,223.6 187.3,223.3 188.6,222.9 190.0,222.6 191.4,222.2 192.8,221.9 194.2,221.6 195.6,221.3 197.1,221.0 198.5,220.7 200.0,220.4 201.4,220.1 202.9,219.8 204.4,219.5 205.9,219.3 207.4,219.0 208.9,218.8 210.4,218.5 211.9,218.3 213.4,218.1 215.0,217.8 216.5,217.6 218.1,217.4 219.7,217.2 221.3,217.0 222.9,216.9 224.5,216.7 226.1,216.5 227.7,216.4 229.3,216.2 231.0,216.1 232.6,216.0 234.3,215.9 235.9,215.7 237.6,215.6 239.3,215.5 241.0,215.5 242.7,215.4 244.4,215.3 246.1,215.3 247.9,215.2 249.6,215.2 251.4,215.2 253.1,215.2 254.9,215.1 256.7,215.2 258.5,215.2 260.3,215.2 262.1,215.2 263.9,215.3 265.7,215.3 267.6,215.4 269.4,215.5 271.3,215.6 273.2,215.7 275.0,215.8 276.9,215.9 278.8,216.0 280.8,216.2 282.7,216.3 284.6,216.5 286.6,216.7 288.5,216.9 290.5,217.1 292.5,217.3 294.4,217.5 296.4,217.8 298.5,218.0 300.5,218.3 302.5,218.6 304.6,218.9 306.6,219.2 308.7,219.5 310.8,219.9 312.9,220.2 315.0,220.6 317.1,221.0 319.2,221.4 321.4,221.8 323.6,222.3 325.8,222.7 327.9,223.2 330.2,223.7 332.4,224.2 334.6,224.7 336.9,225.3 339.2,225.8 341.5,226.4 343.8,227.0 346.1,227.6 348.5,228.3 350.9,228.9 353.3,229.6 355.7,230.4 358.1,231.1 360.6,231.8 363.1,232.6 365.6,233.5 368.1,234.3 370.7,235.2 373.3,236.1 376.0,237.0 378.7,238.0 381.4,239.0 384.1,240.0 386.9,241.1 389.8,242.2 392.7,243.4 395.6,244.6 398.6,245.8 401.7,247.1 404.8,248.5 408.0,249.9 411.3,251.4 414.7,252.9 418.1,254.6 421.7,256.3 425.5,258.1 429.4,260.0 433.4,262.1 437.7,264.3 442.3,266.7 447.1,269.3 452.5,272.2 458.4,275.5 465.2,279.4 473.6,284.3 486.3,291.8 482.3,289.3 471.6,282.8 464.0,278.0 457.8,274.1 452.5,270.6 447.8,267.5 443.5,264.7 439.6,262.0 436.0,259.4 432.6,257.0 429.4,254.7 426.4,252.5 423.6,250.4 420.9,248.3 418.3,246.3 415.9,244.3 413.5,242.4 411.3,240.5 409.2,238.7 407.1,236.9 405.1,235.2 403.2,233.4 401.3,231.7 399.6,230.1 397.9,228.4 396.2,226.8 394.6,225.2 393.1,223.6 391.6,222.0 390.1,220.5 388.7,219.0 387.4,217.5 386.1,216.0 384.8,214.5 383.6,213.0 382.4,211.6 381.3,210.2 380.2,208.7 379.1,207.3 378.1,205.9 377.1,204.5 376.1,203.2 375.2,201.8 374.3,200.4 373.4,199.1 372.6,197.8 371.8,196.4 371.0,195.1 370.3,193.8 369.5,192.5 368.9,191.2 368.2,189.9 367.5,188.7 366.9,187.4 366.3,186.2 365.8,184.9 365.2,183.7 364.7,182.4 364.2,181.2 363.7,180.0 363.3,178.8 362.9,177.6 362.5,176.4 362.1,175.2 361.7,174.0 361.4,172.8 361.1,171.6 360.8,170.5 360.5,169.3 360.2,168.2 360.0,167.0 359.8,165.9 359.6,164.7 359.4,163.6 359.2,162.5 359.1,161.4 359.0,160.3 358.9,159.2 358.8,158.1 358.7,157.0 358.6,155.9 358.6,154.8 358.6,153.7 358.6,152.7 358.6,151.6 358.6,150.6 358.7,149.5 358.7,148.5 358.8,147.4 358.9,146.4 359.0,145.4 359.1,144.3 359.3,143.3 359.4,142.3 359.6,141.3 359.8,140.3 360.0,139.3 360.2,138.3 360.4,137.3 360.7,136.4 361.0,135.4 361.2,134.4 361.5,133.5 361.8,132.5 362.1,131.6 362.5,130.6 362.8,129.7 363.2,128.8 363.5,127.8 363.9,126.9 364.3,126.0 364.7,125.1 365.1,124.2 365.6,123.3 366.0,122.4 366.5,121.5 366.9,120.6 367.4,119.8 367.9,118.9 368.4,118.0 368.9,117.2 369.4,116.3 370.0,115.5 370.5,114.6 371.1,113.8 371.7,113.0 372.3,112.2 372.9,111.3 373.5,110.5 374.1,109.7 374.7,108.9 375.4,108.1 376.0,107.3 376.7,106.6 377.3,105.8 378.0,105.0 378.7,104.3 379.4,103.5 380.1,102.8 380.8,102.0 381.6,101.3 382.3,100.5 383.1,99.8 383.8,99.1 384.6,98.4 385.4,97.7 386.2,97.0 387.0,96.3 387.8,95.6 388.6,94.9 389.4,94.2 390.2,93.6 391.1,92.9 391.9,92.2 392.8,91.6 393.6,90.9 394.5,90.3 395.4,89.7 396.3,89.0 397.2,88.4 398.1,87.8 399.0,87.2 399.9,86.6 400.9,86.0 401.8,85.4 402.7,84.8 403.7,84.2 404.7,83.7 405.6,83.1 406.6,82.6 407.6,82.0 408.6,81.5 409.6,80.9 410.6,80.4 411.6,79.9 412.6,79.3 413.6,78.8 414.6,78.3 415.7,77.8 416.7,77.3 417.7,76.9 418.8,76.4 419.9,75.9 420.9,75.4 422.0,75.0 423.1,74.5 424.1,74.1 425.2,73.7 426.3,73.2 427.4,72.8 428.5,72.4 429.6,72.0 430.7,71.6 431.9,71.2 433.0,70.8 434.1,70.4 435.2,70.0 436.4,69.6 437.5,69.3 438.7,68.9 439.8,68.6 441.0,68.2 442.1,67.9 443.3,67.6 444.5,67.2 445.6,66.9 446.8,66.6 448.0,66.3 449.2,66.0 450.3,65.7 451.5,65.5 452.7,65.2 453.9,64.9 455.1,64.7 456.3,64.4 457.5,64.2 458.7,63.9 459.9,63.7 461.2,63.5 462.4,63.2 463.6,63.0 464.8,62.8 466.0,62.6 467.3,62.4 468.5,62.3 469.7,62.1 471.0,61.9 472.2,61.8 473.4,61.6 474.7,61.5 475.9,61.3 477.1,61.2 478.4,61.1 479.6,60.9 480.9,60.8 482.1,60.7 483.4,60.6 484.6,60.5 485.9,60.4 487.1,60.4 488.4,60.3 489.6,60.2 490.9,60.2 492.1,60.1 493.4,60.1 494.7,60.1 495.9,60.0 497.2,60.0 498.4,60.0 499.7,60.0 500.9,60.0 502.2,60.0 503.5,60.0 504.7,60.1 506.0,60.1 507.2,60.1 508.5,60.2 509.7,60.2 511.0,60.3 512.2,60.3 513.5,60.4 514.7,60.5 516.0,60.6 517.2,60.7 518.5,60.8 519.7,60.9 521.0,61.0 522.2,61.1 523.5,61.2 524.7,61.4 526.0,61.5 527.2,61.7 528.4,61.8 529.7,62.0 530.9,62.2 532.1,62.4 533.4,62.5 534.6,62.7 535.8,62.9 537.0,63.1 538.2,63.4 539.5,63.6 540.7,63.8 541.9,64.0 543.1,64.3 544.3,64.5 545.5,64.8 546.7,65.1 547.9,65.3 549.1,65.6 550.3,65.9 551.4,66.2 552.6,66.5 553.8,66.8 555.0,67.1 556.1,67.4 557.3,67.7 558.5,68.1 559.6,68.4 560.8,68.7 561.9,69.1 563.1,69.5 564.2,69.8 565.3,70.2 566.5,70.6 567.6,71.0 568.7,71.4 569.8,71.8 570.9,72.2 572.0,72.6 573.1,73.0 574.2,73.4 575.3,73.9 576.4,74.3 577.5,74.8 578.5,75.2 579.6,75.7 580.7,76.1 581.7,76.6 582.8,77.1 583.8,77.6 584.9,78.1 585.9,78.6 586.9,79.1 587.9,79.6 588.9,80.1 589.9,80.7 590.9,81.2 591.9,81.7 592.9,82.3 593.9,82.8 594.9,83.4 595.8,84.0 596.8,84.5 597.7,85.1 598.7,85.7 599.6,86.3 600.5,86.9 601.4,87.5 602.4,88.1 603.3,88.7 604.2,89.3 605.0,90.0 605.9,90.6 606.8,91.3 607.7,91.9 608.5,92.6 609.3,93.2 610.2,93.9 611.0,94.6 611.8,95.2 612.6,95.9 613.4,96.6 614.2,97.3 615.0,98.0 615.8,98.7 616.6,99.5 617.3,100.2 618.1,100.9 618.8,101.6 619.5,102.4 620.2,103.1 620.9,103.9 621.6,104.6 622.3,105.4 623.0,106.2 623.7,107.0 624.3,107.7 625.0,108.5 625.6,109.3 626.2,110.1 626.8,110.9 627.4,111.7 628.0,112.6 628.6,113.4 629.2,114.2 629.7,115.1 630.3,115.9 630.8,116.7 631.3,117.6 631.9,118.5 632.4,119.3 632.8,120.2 633.3,121.1 633.8,122.0 634.2,122.8 634.7,123.7 635.1,124.6 635.5,125.5 635.9,126.5 636.3,127.4 636.7,128.3 637.0,129.2 637.4,130.2 637.7,131.1 638.0,132.0 638.3,133.0 638.6,134.0 638.9,134.9 639.2,135.9 639.4,136.9 639.7,137.8 639.9,138.8 640.1,139.8 640.3,140.8 640.5,141.8 640.6,142.8 640.8,143.8 640.9,144.9 641.0,145.9 641.1,146.9 641.2,147.9 641.3,149.0 641.4,150.0 641.4,151.1 641.4,152.1 641.4,153.2 641.4,154.3 641.4,155.4 641.3,156.4 641.3,157.5 641.2,158.6 641.1,159.7 641.0,160.8 640.8,161.9 640.7,163.1 640.5,164.2 640.3,165.3 640.1,166.4 639.9,167.6 639.6,168.7 639.4,169.9 639.1,171.1 638.8,172.2 638.5,173.4 638.1,174.6 637.7,175.8 637.3,177.0 636.9,178.2 636.5,179.4 636.0,180.6 635.5,181.8 635.0,183.0 634.5,184.3 634.0,185.5 633.4,186.8 632.8,188.0 632.1,189.3 631.5,190.6 630.8,191.9 630.1,193.2 629.4,194.5 628.6,195.8 627.8,197.1 627.0,198.4 626.1,199.8 625.2,201.1 624.3,202.5 623.4,203.8 622.4,205.2 621.4,206.6 620.3,208.0 619.3,209.4 618.1,210.9 617.0,212.3 615.8,213.8 614.5,215.2 613.3,216.7 611.9,218.2 610.6,219.7 609.1,221.3 607.7,222.8 606.2,224.4 604.6,226.0 603.0,227.6 601.3,229.2 599.5,230.9 597.7,232.6 595.9,234.3 593.9,236.0 591.9,237.8 589.8,239.6 587.6,241.5 585.3,243.3 582.9,245.3 580.4,247.3 577.8,249.3 575.0,251.4 572.1,253.6 569.0,255.9 565.8,258.2 562.3,260.7 558.5,263.3 554.4,266.1 549.9,269.1 544.9,272.3 539.3,276.0 532.5,280.3 523.7,285.7 507.9,295.2 521.0,287.4 530.9,281.7 538.4,277.4 544.7,273.8 550.3,270.8 555.3,268.0 560.0,265.5 564.5,263.2 568.6,261.1 572.6,259.1 576.4,257.2 580.1,255.4 583.6,253.7 587.0,252.1 590.4,250.6 593.6,249.2 596.8,247.8 599.9,246.5 602.9,245.2 605.9,243.9 608.8,242.8 611.7,241.6 614.5,240.5 617.3,239.5 620.0,238.5 622.7,237.5 625.4,236.5 628.0,235.6 630.6,234.7 633.1,233.9 635.7,233.0 638.2,232.2 640.7,231.5 643.1,230.7 645.5,230.0 648.0,229.3 650.3,228.6 652.7,228.0 655.0,227.3 657.4,226.7 659.7,226.1 662.0,225.5 664.2,225.0 666.5,224.5 668.7,223.9 670.9,223.4 673.2,223.0 675.3,222.5 677.5,222.1 679.7,221.6 681.8,221.2 684.0,220.8 686.1,220.4 688.2,220.1 690.3,219.7 692.3,219.4 694.4,219.1 696.5,218.8 698.5,218.5 700.5,218.2 702.6,217.9 704.6,217.7 706.6,217.4 708.5,217.2 710.5,217.0 712.5,216.8 714.4,216.6 716.4,216.4 718.3,216.3 720.2,216.1 722.1,216.0 724.0,215.8 725.9,215.7 727.8,215.6 729.6,215.5 731.5,215.4 733.3,215.4 735.2,215.3 737.0,215.2 738.8,215.2 740.6,215.2 742.4,215.2 744.2,215.1 746.0,215.1 747.8,215.2 749.5,215.2 751.3,215.2 753.0,215.3 754.7,215.3 756.4,215.4 758.2,215.4 759.9,215.5 761.5,215.6 763.2,215.7 764.9,215.8 766.6,215.9 768.2,216.0 769.9,216.2 771.5,216.3 773.1,216.5 774.7,216.6 776.3,216.8 777.9,217.0 779.5,217.1 781.1,217.3 782.7,217.5 784.2,217.7 785.8,217.9 787.3,218.2 788.9,218.4 790.4,218.6 791.9,218.9 793.4,219.1 794.9,219.4 796.4,219.7 797.8,219.9 799.3,220.2 800.8,220.5 802.2,220.8 803.6,221.1 805.1,221.4 806.5,221.7 807.9,222.1 809.3,222.4 810.7,222.7 812.0,223.1 813.4,223.4 814.8,223.8 816.1,224.2 817.5,224.5 818.8,224.9 820.1,225.3 821.4,225.7 822.7,226.1 824.0,226.5 825.3,226.9 826.5,227.3 827.8,227.8 829.1,228.2 830.3,228.6 831.5,229.1 832.7,229.5 833.9,230.0 835.1,230.4 836.3,230.9 837.5,231.3 838.7,231.8 839.8,232.3 841.0,232.8 842.1,233.3 843.2,233.8 844.4,234.3 845.5,234.8 846.6,235.3 847.6,235.8 848.7,236.3 849.8,236.8 850.8,237.4 851.9,237.9 852.9,238.4 853.9,239.0 854.9,239.5 855.9,240.1 856.9,240.7 857.9,241.2 858.9,241.8 859.8,242.4 860.8,242.9 861.7,243.5 862.6,244.1 863.6,244.7 864.5,245.3 865.4,245.9 866.2,246.5 867.1,247.1 868.0,247.7 868.8,248.3 869.7,248.9 870.5,249.6 871.3,250.2 872.1,250.8 872.9,251.4 873.7,252.1 874.5,252.7 875.2,253.4 876.0,254.0 876.7,254.6 877.4,255.3 878.1,256.0 878.8,256.6 879.5,257.3 880.2,257.9 880.9,258.6 881.6,259.3 882.2,260.0 882.8,260.6 883.5,261.3 884.1,262.0 884.7,262.7 885.3,263.4 885.9,264.1 886.4,264.8 887.0,265.4 887.5,266.1 888.1,266.8 888.6,267.5 889.1,268.3 889.6,269.0 890.1,269.7 890.6,270.4 891.0,271.1 891.5,271.8 891.9,272.5 892.3,273.2 892.8,274.0 893.2,274.7 893.6,275.4 893.9,276.1 894.3,276.9 894.7,277.6 895.0,278.3 895.4,279.1 895.7,279.8 896.0,280.5 896.3,281.3 896.6,282.0 896.9,282.8 897.1,283.5 897.4,284.2 897.6,285.0 897.9,285.7 898.1,286.5 898.3,287.2 898.5,288.0 898.7,288.7 898.8,289.5 899.0,290.2 899.1,291.0 899.3,291.7 899.4,292.5 899.5,293.2 899.6,294.0 899.7,294.7 899.8,295.5 899.9,296.2 899.9,297.0 899.9,297.7 900.0,298.5 900.0,299.2 900.0,300.0" fill="none" stroke="black" stroke-width="8"/>
  <line x1="500.0" y1="120.0" x2="500.0" y2="480.0" stroke="black" stroke-width="18"/>
  <title>Lemniscata de Penin — infty-bar</title>
</svg>
